# xmcd
#
# Track frame offsets: 
#        150
#        22496
#        35588
#        80276
#        112455
#        140081
#        168813
#        194695
#        237844
#        253904
#        264046
#
# Disc length: 4344 seconds
#
# Revision: 0
# Processed by: cddbd v1.5.2PL0 Copyright (c) Steve Scherf et al.
# Submitted via: ExactAudioCopy v1.0b1
#
DISCID=a110f60b
DTITLE=Sergio Fiorentino - Liszt Premiere Annee ,CD2
DYEAR=2012
DGENRE=Classical
TTITLE0=Grande Etude de Paganini No. 2
TTITLE1=Konzertetude No.2:Gnomenreigen
TTITLE2=Hungarian Rhapsodies-No.2 in C sharp minor
TTITLE3=No.6 in D flat major
TTITLE4=No.7 in D minor
TTITLE5=No.10 in E major
TTITLE6=No.11 in A minor
TTITLE7=No.13 in A minor
TTITLE8=Grand Galop Chromatique
TTITLE9=Ab Lrato
TTITLE10=Grande Fantaisie de bravoure sur la Clochette de Paganini
EXTD=
EXTT0=
EXTT1=
EXTT2=
EXTT3=
EXTT4=
EXTT5=
EXTT6=
EXTT7=
EXTT8=
EXTT9=
EXTT10=
PLAYORDER=
